<?xml version="1.0" standalone="no"?><!-- Generator: Gravit.io --><svg xmlns="http://www.w3.org/2000/svg" xmlns:xlink="http://www.w3.org/1999/xlink" style="isolation:isolate" viewBox="153.259 131.333 816.001 324" width="816.001" height="324"><g><path d=" M 957.432 311.333 L 945.26 293.329 L 957.432 275.333 L 969.26 275.333 L 969.26 239.333 L 153.262 239.333 L 153.262 275.333 L 165.09 275.333 L 177.259 293.329 L 165.259 311.333 L 153.259 311.333 L 153.262 347.325 L 969.26 347.325 L 969.259 311.333 L 957.432 311.333 Z " fill="rgb(243,123,32)"/><path d=" M 297.261 419.333 L 333.261 419.333 L 333.261 311.333 L 297.261 311.333 L 297.261 419.333 Z  M 297.261 275.333 L 333.261 275.333 L 333.261 167.333 L 297.261 167.333 L 297.261 275.333 Z  M 369.261 155.333 L 369.261 275.333 L 357.261 293.335 L 369.261 311.333 L 369.261 431.333 L 345.261 455.333 L 261.261 455.333 L 261.261 131.333 L 344.899 131.337 L 369.261 155.333 Z " fill="rgb(0,0,0)"/><path d=" M 429.261 275.333 L 465.261 275.333 L 465.261 167.333 L 429.261 167.333 L 429.261 275.333 Z  M 501.261 155.333 L 501.261 275.333 L 489.261 293.329 L 501.261 311.333 L 501.261 455.333 L 465.261 455.333 L 465.261 311.333 L 429.261 311.333 L 429.261 455.333 L 393.351 455.333 L 393.351 131.337 L 477.261 131.337 L 501.261 155.333 Z " fill="rgb(0,0,0)"/><path d=" M 633.26 431.333 L 609.26 455.333 L 549.26 455.333 L 525.439 431.333 L 525.439 131.337 L 561.26 131.337 L 561.26 419.333 L 597.26 419.333 L 597.26 131.337 L 633.26 131.337 L 633.26 431.333 Z " fill="rgb(0,0,0)"/><path d=" M 765.26 155.333 L 765.26 215.333 L 729.26 215.333 L 729.26 167.333 L 693.26 167.333 L 693.26 419.333 L 729.26 419.333 L 729.26 371.333 L 765.26 371.333 L 765.26 431.333 L 741.26 455.333 L 681.26 455.333 L 657.26 431.333 L 657.26 155.333 L 681.26 131.337 L 738.55 131.337 L 765.26 155.333 Z " fill="rgb(0,0,0)"/><path d=" M 885.26 167.333 L 825.26 167.5 L 825.26 275.333 L 861.26 275.333 L 861.26 311.333 L 825.26 311.333 L 825.26 419.333 L 885.26 419.333 L 885.26 455.333 L 821.776 455.333 L 789.26 455.333 L 789.26 131.337 L 814.664 131.337 L 885.26 131.337 L 885.26 167.333 Z " fill="rgb(0,0,0)"/></g></svg>