<?xml version="1.0" standalone="no"?><!-- Generator: Gravit.io --><svg xmlns="http://www.w3.org/2000/svg" xmlns:xlink="http://www.w3.org/1999/xlink" style="isolation:isolate" viewBox="154.666 215.733 816.001 324" width="816.001" height="324"><g><path d=" M 958.839 395.733 L 946.667 377.729 L 958.839 359.733 L 970.667 359.733 L 970.667 323.733 L 154.668 323.733 L 154.668 359.733 L 166.496 359.733 L 178.666 377.729 L 166.666 395.733 L 154.666 395.733 L 154.668 431.725 L 970.667 431.725 L 970.666 395.733 L 958.839 395.733 Z " fill="rgb(243,123,32)"/><path d=" M 298.668 503.733 L 334.668 503.733 L 334.668 395.733 L 298.668 395.733 L 298.668 503.733 Z  M 298.668 359.733 L 334.668 359.733 L 334.668 251.733 L 298.668 251.733 L 298.668 359.733 Z  M 370.668 239.733 L 370.668 359.733 L 358.668 377.735 L 370.668 395.733 L 370.668 515.733 L 346.668 539.733 L 262.668 539.733 L 262.668 215.733 L 346.305 215.737 L 370.668 239.733 Z " fill="rgb(255,255,255)"/><path d=" M 430.668 359.733 L 466.668 359.733 L 466.668 251.733 L 430.668 251.733 L 430.668 359.733 Z  M 502.668 239.733 L 502.668 359.733 L 490.668 377.729 L 502.668 395.733 L 502.668 539.733 L 466.668 539.733 L 466.668 395.733 L 430.668 395.733 L 430.668 539.733 L 394.757 539.733 L 394.757 215.737 L 478.668 215.737 L 502.668 239.733 Z " fill="rgb(255,255,255)"/><path d=" M 634.667 515.733 L 610.667 539.733 L 550.667 539.733 L 526.846 515.733 L 526.846 215.737 L 562.667 215.737 L 562.667 503.733 L 598.667 503.733 L 598.667 215.737 L 634.667 215.737 L 634.667 515.733 Z " fill="rgb(255,255,255)"/><path d=" M 766.667 239.733 L 766.667 299.733 L 730.667 299.733 L 730.667 251.733 L 694.667 251.733 L 694.667 503.733 L 730.667 503.733 L 730.667 455.733 L 766.667 455.733 L 766.667 515.733 L 742.667 539.733 L 682.667 539.733 L 658.667 515.733 L 658.667 239.733 L 682.667 215.737 L 739.956 215.737 L 766.667 239.733 Z " fill="rgb(255,255,255)"/><path d=" M 886.667 251.733 L 826.667 251.9 L 826.667 359.733 L 862.667 359.733 L 862.667 395.733 L 826.667 395.733 L 826.667 503.733 L 886.667 503.733 L 886.667 539.733 L 823.183 539.733 L 790.667 539.733 L 790.667 215.737 L 816.071 215.737 L 886.667 215.737 L 886.667 251.733 Z " fill="rgb(255,255,255)"/></g></svg>